<svg width="115" height="85" viewBox="0 0 115 85" fill="none" xmlns="http://www.w3.org/2000/svg">
<g clip-path="url(#clip0_345_22866)">
<path fill-rule="evenodd" clip-rule="evenodd" d="M57.3289 20.1855C64.0754 20.1855 69.5447 25.6493 69.5447 32.389C69.5447 39.1287 64.0754 44.5923 57.3289 44.5923C50.5825 44.5923 45.1133 39.1287 45.1133 32.389C45.1133 25.6493 50.5825 20.1855 57.3289 20.1855Z" fill="black"/>
<path fill-rule="evenodd" clip-rule="evenodd" d="M71.5134 19.1953L80.7389 9.97907C74.8377 3.82893 66.5317 0 57.3303 0C39.4241 0 24.9082 14.5013 24.9082 32.3893C24.9082 50.2776 39.4241 64.7789 57.3303 64.7789C66.5166 64.7789 74.8104 60.9624 80.7099 54.8299L71.4848 45.6142C67.9481 49.3903 62.915 51.7502 57.3303 51.7502C46.627 51.7502 37.9501 43.0821 37.9501 32.3893C37.9501 21.6969 46.627 13.0288 57.3303 13.0288C62.9301 13.0288 67.9754 15.4015 71.5134 19.1953Z" fill="#F39406"/>
<path fill-rule="evenodd" clip-rule="evenodd" d="M71.8636 19.5816C74.88 22.9949 76.7108 27.4787 76.7108 32.3897C76.7108 37.3161 74.8692 41.8124 71.8359 45.2295L81.0676 54.4518C86.4561 48.6684 89.7527 40.9137 89.7527 32.3897C89.7527 23.8808 86.4678 16.1385 81.0961 10.3584L71.8636 19.5816Z" fill="black"/>
<path d="M9.06837 79.8148L11.6916 80.6198C11.2886 82.0952 10.6172 83.1901 9.68049 83.9077C8.74375 84.622 7.55696 84.9808 6.11744 84.9808C4.33448 84.9808 2.86997 84.3724 1.72079 83.1559C0.574695 81.9393 0 80.2765 0 78.1646C0 75.9342 0.577779 74.1997 1.73008 72.9643C2.88234 71.729 4.39998 71.1113 6.27986 71.1113C7.92231 71.1113 9.25581 71.5979 10.28 72.5682C10.8921 73.1421 11.3479 73.9655 11.654 75.0419L8.97479 75.6784C8.81545 74.9858 8.48442 74.4367 7.98161 74.0343C7.47572 73.632 6.86387 73.4321 6.14555 73.4321C5.1495 73.4321 4.34068 73.7878 3.72239 74.5023C3.10101 75.2135 2.79184 76.3677 2.79184 77.9649C2.79184 79.6556 3.09789 80.8629 3.70668 81.5805C4.31877 82.3012 5.11189 82.6597 6.08933 82.6597C6.81074 82.6597 7.43215 82.432 7.95042 81.9735C8.46889 81.5148 8.84356 80.7974 9.0684 79.8148L9.06837 79.8148ZM26.1028 84.7562H23.1769L22.0184 81.7052H16.6379L15.5231 84.7562H12.6502L17.8588 71.3545H20.7288L26.1028 84.7562ZM21.1377 79.4406L19.2735 74.4804L17.4623 79.4406H21.1377ZM27.5488 84.7562V71.3545H33.2539C34.6873 71.3545 35.7302 71.4763 36.3797 71.7164C37.0323 71.9567 37.5508 72.3841 37.9412 72.9986C38.3315 73.6163 38.5283 74.3182 38.5283 75.1105C38.5283 76.1181 38.2346 76.948 37.6444 77.603C37.0542 78.2581 36.1737 78.6699 34.9995 78.8415C35.5835 79.1815 36.0644 79.556 36.4421 79.9645C36.8232 80.3732 37.3353 81.1001 37.9785 82.142L39.6148 84.7562H36.3766L34.4343 81.8301C33.7379 80.7913 33.2602 80.1361 33.001 79.8648C32.745 79.5965 32.4732 79.4092 32.186 79.3095C31.8954 79.2096 31.4395 79.1598 30.8151 79.1598H30.2654V84.7562H27.5488V84.7562ZM30.2654 77.0261H32.2703C33.5693 77.0261 34.3781 76.9699 34.7028 76.8607C35.0245 76.7515 35.2805 76.5612 35.4616 76.2928C35.6459 76.0246 35.7364 75.6877 35.7364 75.2851C35.7364 74.8328 35.6147 74.4709 35.3741 74.1902C35.1338 73.9127 34.7935 73.7379 34.3562 73.6662C34.1345 73.6351 33.4757 73.6193 32.3796 73.6193H30.2654V77.026V77.0261ZM44.096 84.7562V73.6194H40.124V71.3545H50.7661V73.6194H46.8128V84.7562H44.096ZM52.5241 84.7562V71.3545H62.4542V73.6194H55.2407V76.5954H61.9483V78.8603H55.2407V82.4914H62.7166V84.7562H52.5241V84.7562ZM65.0212 84.7562V71.3545H70.7263C72.1597 71.3545 73.2026 71.4763 73.8521 71.7164C74.5047 71.9567 75.0232 72.3841 75.4136 72.9986C75.8039 73.6163 76.0007 74.3182 76.0007 75.1105C76.0007 76.1181 75.707 76.948 75.1168 77.603C74.5266 78.2581 73.6461 78.6699 72.4719 78.8415C73.0559 79.1815 73.5368 79.556 73.9145 79.9645C74.2956 80.3732 74.8077 81.1001 75.451 82.142L77.0872 84.7562H73.849L71.9067 81.8301C71.2103 80.7913 70.7326 80.1361 70.4734 79.8648C70.2174 79.5965 69.9456 79.4092 69.6584 79.3095C69.3678 79.2096 68.9119 79.1598 68.2875 79.1598H67.7378V84.7562H65.0212V84.7562ZM67.7378 77.0261H69.7427C71.0417 77.0261 71.8505 76.9699 72.1752 76.8607C72.4969 76.7515 72.7529 76.5612 72.934 76.2928C73.1183 76.0246 73.2088 75.6877 73.2088 75.2851C73.2088 74.8328 73.0871 74.4709 72.8466 74.1902C72.6062 73.9127 72.2659 73.7379 71.8286 73.6662C71.6069 73.6351 70.9481 73.6193 69.852 73.6193H67.7378V77.026V77.0261ZM77.9899 78.1365C77.9899 76.7701 78.1959 75.6223 78.6051 74.6925C78.9078 74.0093 79.3263 73.3948 79.8541 72.8521C80.3819 72.3091 80.9594 71.9068 81.5872 71.6417C82.4241 71.2891 83.389 71.1114 84.482 71.1114C86.4616 71.1114 88.0419 71.726 89.2316 72.9518C90.4182 74.1809 91.0114 75.8874 91.0114 78.0742C91.0114 80.2422 90.4212 81.9394 89.244 83.1621C88.0667 84.3882 86.4898 84.9996 84.5194 84.9996C82.524 84.9996 80.9346 84.3913 79.7574 83.1716C78.5801 81.9549 77.9899 80.2765 77.9899 78.1365L77.9899 78.1365ZM80.7814 78.0461C80.7814 79.5653 81.1344 80.7164 81.837 81.5025C82.5396 82.2856 83.4325 82.6786 84.5131 82.6786C85.5966 82.6786 86.4835 82.2886 87.1799 81.5118C87.8732 80.7321 88.2198 79.5653 88.2198 78.0087C88.2198 76.4707 87.8825 75.3227 87.2049 74.5678C86.5304 73.8097 85.6342 73.4322 84.5131 73.4322C83.3951 73.4322 82.4927 73.8159 81.8089 74.5802C81.1249 75.3477 80.7815 76.5019 80.7815 78.0461H80.7814ZM93.0318 84.7562V71.3546H95.7486V84.7562H93.0318ZM98.4059 84.7562V71.4669H101.123V82.4914H107.849V84.7562H98.4058H98.4059Z" fill="#F39406"/>
<path d="M110.614 75.3028V72.3818H111.857C112.169 72.3818 112.397 72.4084 112.538 72.4608C112.68 72.5132 112.793 72.6062 112.878 72.7402C112.964 72.8748 113.006 73.0278 113.006 73.2005C113.006 73.4202 112.942 73.601 112.814 73.7438C112.685 73.8864 112.493 73.9762 112.237 74.0138C112.365 74.0878 112.47 74.1694 112.552 74.2585C112.635 74.3476 112.746 74.5059 112.887 74.7331L113.243 75.3028H112.537L112.114 74.6651C111.962 74.4387 111.858 74.2959 111.802 74.2366C111.746 74.1783 111.687 74.1374 111.624 74.1157C111.561 74.0938 111.462 74.083 111.325 74.083H111.205V75.3028H110.614ZM111.205 73.6181H111.643C111.926 73.6181 112.102 73.6057 112.173 73.582C112.243 73.5581 112.299 73.5166 112.338 73.4582C112.378 73.3997 112.398 73.3262 112.398 73.2385C112.398 73.1399 112.371 73.0612 112.319 72.9999C112.267 72.9393 112.192 72.9013 112.097 72.8856C112.049 72.8788 111.905 72.8755 111.666 72.8755H111.205V73.618V73.6181Z" fill="black"/>
<path fill-rule="evenodd" clip-rule="evenodd" d="M111.928 71.1113C113.438 71.1113 114.662 72.3341 114.662 73.8426C114.662 75.351 113.438 76.5737 111.928 76.5737C110.418 76.5737 109.194 75.351 109.194 73.8426C109.194 72.3341 110.418 71.1113 111.928 71.1113Z" stroke="black" stroke-width="1.15656" stroke-miterlimit="2.61313"/>
</g>
<defs>
<clipPath id="clip0_345_22866">
<rect width="115" height="85" fill="white"/>
</clipPath>
</defs>
</svg>
